<?xml version="1.0" encoding="UTF-8" standalone="no"?>
<!-- Created with Inkscape (http://www.inkscape.org/) -->

<svg
   width="34.402702mm"
   height="34.39325mm"
   viewBox="0 0 34.402702 34.39325"
   version="1.1"
   id="svg5"
   xmlSpace="preserve"
   xmlns="http://www.w3.org/2000/svg"
   xmlnssvg="http://www.w3.org/2000/svg"><defs
     id="defs2"><style
       id="style182">
      .cls-1 {
        fill: current;
      }
    </style></defs><g
     id="layer1"
     transform="translate(-99.031535,-162.76319)"><g
       id="g2476"
       transform="matrix(0.26458333,0,0,0.26458333,98.766974,162.49875)"><path
         id="path2452"
         d="M 65.029673,-5.3517442e-4 C 37.8877,-5.3517442e-4 29.949624,0.02771496 28.406625,0.15571483 22.836631,0.61871436 19.370121,1.4964199 15.594125,3.376418 12.684128,4.8214165 10.390373,6.4952173 8.125375,8.8432149 4.0003791,13.125211 1.499124,18.393721 0.59412486,24.655715 0.1541253,27.695712 0.02637483,28.315231 3.7485517e-4,43.843215 c -0.009999985,5.175995 0,11.98801 0,21.125001 0,27.119973 0.0301563848,35.049844 0.16015625483,36.589844 0.44999955,5.41999 1.29961119,8.83055 3.09960939,12.56055 3.4399966,7.13999 10.0100075,12.5 17.7500005,14.5 2.679997,0.69 5.64141,1.07 9.441406,1.25 1.609999,0.07 18.01947,0.12109 34.439454,0.12109 16.419983,0 32.840158,-0.0216 34.410156,-0.10156 4.399993,-0.207 6.954303,-0.5493 9.779293,-1.2793 7.79,-2.01 14.24001,-7.2893 17.75,-14.5293 1.765,-3.63999 2.66141,-7.18136 3.06641,-12.31836 0.088,-1.11999 0.125,-18.975607 0.125,-36.808589 0,-17.835983 -0.0409,-35.661252 -0.12891,-36.781251 C 129.48296,22.951345 128.588,19.441883 126.766,15.731887 125.271,12.69489 123.61155,10.427838 121.20155,8.1088399 116.90055,4.000844 111.63946,1.4991671 105.37147,0.59516796 102.33447,0.1561684 101.72981,0.0264648 86.189829,-5.3517442e-4 Z M 64.984751,16.999465 h 0.01563 c 13.018225,6.9e-5 14.658505,0.05816 19.775391,0.291016 5.109994,0.233999 8.600159,1.04347 11.660156,2.230468 3.159997,1.224999 5.830012,2.863206 8.499992,5.533204 2.67001,2.667997 4.30908,5.346909 5.53907,8.503906 1.17999,3.051997 1.99046,6.540396 2.23046,11.650391 0.23,5.119995 0.28907,6.755029 0.28907,19.791016 0,13.035987 -0.0591,14.669068 -0.28907,19.789062 -0.24,5.107995 -1.05047,8.597394 -2.23046,11.650391 -1.23,3.155997 -2.86906,5.833961 -5.53907,8.501951 -2.66698,2.67 -5.342042,4.31307 -8.498039,5.53906 -3.053997,1.187 -6.546255,1.99647 -11.65625,2.23047 -5.119995,0.233 -6.750123,0.28907 -19.78711,0.28907 -13.034987,0 -14.671021,-0.0561 -19.791016,-0.28907 -5.108994,-0.234 -8.598347,-1.04347 -11.652343,-2.23047 -3.154997,-1.22599 -5.833003,-2.86906 -8.500001,-5.53906 C 22.382159,102.27288 20.742999,99.593963 19.516,96.436966 18.330001,93.384969 17.520531,89.89657 17.285531,84.786575 17.053532,79.66658 16.996469,78.035453 16.996469,64.999466 c 0,-13.035987 0.06006,-14.672974 0.289062,-19.792969 0.23,-5.107995 1.038517,-8.597394 2.228516,-11.650391 1.229999,-3.155997 2.871018,-5.833956 5.541016,-8.501953 2.667997,-2.668998 5.346909,-4.307205 8.503906,-5.533204 3.051997,-1.186998 6.538443,-1.996469 11.648438,-2.230468 5.116885,-0.232859 6.763104,-0.290947 19.777344,-0.291016 z m -4.291016,8.638672 c -8.945991,0.01 -10.661848,0.06953 -15.089844,0.269531 -4.679995,0.215 -7.220111,0.996251 -8.912109,1.65625 -2.239998,0.871999 -3.841487,1.911799 -5.521485,3.591797 -1.679998,1.679999 -2.721798,3.279534 -3.591797,5.519532 -0.656999,1.691998 -1.438344,4.232114 -1.652344,8.912109 -0.229999,5.059995 -0.27539,6.570685 -0.27539,19.388672 0,12.817987 0.04539,14.338443 0.27539,19.398438 0.213,4.679995 0.995345,7.220158 1.652344,8.910156 0.871999,2.240998 1.911799,3.83758 3.591797,5.517578 1.679998,1.68 3.281487,2.71985 5.521485,3.58984 1.692998,0.657 4.232114,1.4383 8.912109,1.6543 5.059995,0.23 6.579497,0.28125 19.396485,0.28125 12.815987,0 14.336489,-0.0512 19.396484,-0.28125 4.679996,-0.214 7.222111,-0.9943 8.91211,-1.6543 2.240998,-0.86999 3.835627,-1.90984 5.515625,-3.58984 1.679995,-1.678998 2.721795,-3.273674 3.591795,-5.513671 0.657,-1.689999 1.43835,-4.230162 1.65235,-8.910157 0.23,-5.059995 0.27929,-6.578685 0.27929,-19.388672 0,-12.809987 -0.0493,-14.33063 -0.27929,-19.390625 -0.213,-4.679996 -0.99535,-7.220158 -1.65235,-8.910157 -0.872,-2.239997 -1.9118,-3.839533 -3.591795,-5.519531 -1.678998,-1.679998 -3.275627,-2.719845 -5.515625,-3.589844 -1.691999,-0.656999 -4.232114,-1.440297 -8.91211,-1.654297 -5.060995,-0.229999 -6.580497,-0.27539 -19.396484,-0.27539 -1.601999,0 -3.028642,-0.002 -4.306641,0 z m 29.927735,7.980469 c 3.179997,0 5.759765,2.579769 5.759765,5.759766 0,3.179996 -2.579768,5.759765 -5.759765,5.759765 -3.179997,0 -5.759766,-2.579769 -5.759766,-5.759765 0,-3.180997 2.579769,-5.757813 5.759766,-5.757813 z m -25.623047,6.730469 h 0.002 c 13.61208,0.0011 24.646484,11.038062 24.646484,24.650391 0,13.612986 -11.033498,24.646484 -24.646484,24.646484 -13.612987,0 -24.650391,-11.033498 -24.650391,-24.646484 0,-13.612329 11.036357,-24.649326 24.648438,-24.650391 z m 0.002,8.65039 c -8.836991,0 -16.000001,7.163009 -16.000001,16.000001 0,8.835991 7.16301,16 16.000001,16 8.835991,0 16,-7.164009 16,-16 0,-8.836992 -7.164009,-16.000001 -16,-16.000001 z"
         transform="translate(1.004,1)" /></g></g></svg>
