<?xml version="1.0" encoding="UTF-8" standalone="no"?>
<!-- Created with Inkscape (http://www.inkscape.org/) -->

<svg
   width="19.049995mm"
   height="19.050003mm"
   viewBox="0 0 19.049995 19.050003"
   version="1.1"
   id="svg5"
   xmlSpace="preserve"
   xmlns="http://www.w3.org/2000/svg"
   xmlnssvg="http://www.w3.org/2000/svg"><defs
     id="defs2"><style
       id="style182">
      .cls-1 {
        fill: current;
      }
    </style></defs><g
     id="layer1"
     transform="translate(-108.43162,-167.40942)"><g
       fill="current"
       fill-rule="evenodd"
       id="g1866"
       transform="matrix(0.26458333,0,0,0.26458333,108.43141,167.40962)"
       style="fill:current;fill-opacity:1"><path
         id="path1862"
         style="fill:current;fill-opacity:1"
         d="M 8.0008102,-7.5681595e-4 C 3.5825367,-7.5681595e-4 8.1013781e-4,3.5809697 8.1013781e-4,7.9992433 V 63.999244 c 0,4.418274 3.58172656219,8 8.00000006219,8 H 64.000811 c 4.418274,0 8,-3.581726 8,-8 V 7.9992433 c 0,-4.4182736 -3.581726,-8.00000011595 -8,-8.00000011595 z M 16.348467,9.9992433 c 3.507288,0 6.347656,2.8657907 6.347656,6.3984377 0,3.532646 -2.840368,6.396484 -6.347656,6.396484 -3.507289,0 -6.347657,-2.863838 -6.347657,-6.396484 0,-3.532647 2.840368,-6.3984377 6.347657,-6.3984377 z M 49.38167,26.274634 c 7.353118,0 12.619141,4.490612 12.619141,13.777344 V 61.999244 H 51.315264 V 43.801978 c 0,-4.989356 -1.894665,-7.777344 -5.84375,-7.777344 -4.29609,0 -6.541016,2.901344 -6.541016,7.777344 V 61.999244 H 28.633623 V 52.653541 27.333228 h 10.296875 v 4.669922 c 0,0 3.094669,-5.728516 10.451172,-5.728516 z M 11.03206,27.333228 H 21.770342 V 61.999244 H 11.03206 Z" /></g></g></svg>
